<svg id="Ebene_1" data-name="Ebene 1" xmlns="http://www.w3.org/2000/svg" viewBox="0 0 128.88 128.88"><defs><style>.cls-1{fill:#2867b2;}.cls-2{fill:#f7f9fb;}.cls-3{fill:#fbfcfd;}.cls-4{fill:#fdfefe;}.cls-5{fill:#fdfdfe;}</style></defs><path style="fill:#f2637e;" class="cls-1" d="M128.88,7V120.74a5.11,5.11,0,0,0-.44.79,9.36,9.36,0,0,1-9,6.34H9.8A9.28,9.28,0,0,1,.45,118.5q0-54.79,0-109.58a10.7,10.7,0,0,1,.67-3.49C2.1,2.74,4.2,1.14,6.72,0H122.64c.92.54,1.88,1,2.74,1.62A10.51,10.51,0,0,1,128.88,7Zm-19,101.79v-.95c0-10.86.05-21.71,0-32.57a58.8,58.8,0,0,0-1.2-13c-1.2-5.29-3.44-9.95-8.28-12.92-4-2.44-8.41-3.06-13-3.15-7.84-.16-13.91,3-18.19,9.55a3.83,3.83,0,0,1-.54.46V47.8H50.59v60.93h19v-1.47c0-10,0-20,0-30.05a28.66,28.66,0,0,1,.74-6.27c1.32-5.57,5.23-8.39,10.94-8.1,5.14.26,7.94,2.55,9,7.62a35.28,35.28,0,0,1,.66,6.65c.07,10.06,0,20.11,0,30.17v1.46ZM38.44,47.79H19.57v60.92H38.44ZM40,28.27A11,11,0,1,0,29,39.29,11,11,0,0,0,40,28.27Z" transform="translate(0 0)"/><path class="cls-2" d="M6.72,0C4.2,1.14,2.1,2.74,1.14,5.43A10.7,10.7,0,0,0,.47,8.92q0,54.78,0,109.58a9.28,9.28,0,0,0,9.35,9.37H119.46a9.36,9.36,0,0,0,9-6.34,5.11,5.11,0,0,1,.44-.79v8.14H0V0Z" transform="translate(0 0)"/><path class="cls-3" d="M128.88,7a10.51,10.51,0,0,0-3.5-5.33C124.52,1,123.56.54,122.64,0h6.24Z" transform="translate(0 0)"/><path class="cls-4" d="M109.88,108.74h-19v-1.46c0-10.06,0-20.11,0-30.17a35.28,35.28,0,0,0-.66-6.65c-1-5.07-3.82-7.36-9-7.62-5.71-.29-9.62,2.53-10.94,8.1a28.66,28.66,0,0,0-.74,6.27c-.07,10,0,20,0,30.05v1.47h-19V47.8H68.72v8.4a3.83,3.83,0,0,0,.54-.46c4.28-6.56,10.35-9.71,18.19-9.55,4.57.09,9,.71,13,3.15,4.84,3,7.08,7.63,8.28,12.92a58.8,58.8,0,0,1,1.2,13c0,10.86,0,21.71,0,32.57Z" transform="translate(0 0)"/><path class="cls-5" d="M38.44,47.79v60.92H19.57V47.79Z" transform="translate(0 0)"/><path class="cls-5" d="M40,28.27a11,11,0,1,1-11-11A11.06,11.06,0,0,1,40,28.27Z" transform="translate(0 0)"/></svg>